<?xml version="1.0" encoding="UTF-8" standalone="no"?>
<!-- Created with Inkscape (http://www.inkscape.org/) -->

<svg
   width="61.751102mm"
   height="61.751102mm"
   viewBox="0 0 61.751103 61.751102"
   version="1.1"
   id="svg1"
   xml:space="preserve"
   xmlns="http://www.w3.org/2000/svg"
   xmlns:svg="http://www.w3.org/2000/svg"><defs
     id="defs1" /><g
     id="layer1"
     transform="translate(-14.250566,-181.5721)"><rect
       style="fill:#ffffff;stroke-width:0.278495"
       id="rect11"
       width="61.751102"
       height="61.751102"
       x="14.250562"
       y="181.5721" /><path
       style="font-weight:bold;font-size:51.053px;-inkscape-font-specification:'sans-serif Bold';fill:#00aa00;stroke-width:3.19589"
       d="m 28.732871,201.0819 v 22.73141 h 3.43681 q 5.87744,0 8.96559,-2.91939 3.11305,-2.91949 3.11305,-8.4837 0,-5.53939 -3.08815,-8.43386 -3.08814,-2.89446 -8.99049,-2.89446 z m -9.5882,-7.26104 h 10.11119 q 8.46751,0 12.60164,1.22267 4.15903,1.19774 7.12266,4.09211 2.61497,2.52021 3.88509,5.81385 1.27013,3.29365 1.27013,7.46073 0,4.21682 -1.27013,7.53549 -1.27012,3.29365 -3.88509,5.81386 -2.98852,2.89436 -7.17248,4.11703 -4.18394,1.19774 -12.55182,1.19774 h -10.11119 z"
       id="text1-5"
       aria-label="D" /><ellipse
       style="fill:#00aa00;stroke-width:0.338036"
       id="ellipse1-3"
       cx="64.939499"
       cy="214.4462"
       rx="5.2778201"
       ry="5.2879157" /><ellipse
       style="fill:#000000;stroke-width:0.269425"
       id="ellipse2-5"
       cx="64.939499"
       cy="226.85977"
       rx="4.2066116"
       ry="4.2146583" /><ellipse
       style="fill:#00aa00;stroke-width:0.395053"
       id="ellipse3-6"
       cx="64.939499"
       cy="200.49771"
       rx="6.1680527"
       ry="6.1798511" /></g></svg>
