<?xml version="1.0" encoding="UTF-8" standalone="no"?>
<!-- Created with Inkscape (http://www.inkscape.org/) -->

<svg
   width="51.433681mm"
   height="37.25354mm"
   viewBox="0 0 51.433681 37.25354"
   version="1.1"
   id="svg1"
   xml:space="preserve"
   xmlns="http://www.w3.org/2000/svg"
   xmlns:svg="http://www.w3.org/2000/svg"><defs
     id="defs1" /><g
     id="layer1"
     transform="translate(-557.18959,-2090.4926)"><path
       style="font-weight:bold;font-size:51.053px;-inkscape-font-specification:'sans-serif Bold';fill:#00aa00;stroke-width:3.19589"
       d="m 567.31958,2095.7501 v 22.7097 h 3.44009 q 5.88306,0 8.97416,-2.9166 3.11603,-2.9167 3.11603,-8.4756 0,-5.5341 -3.0911,-8.4258 -3.0911,-2.8917 -8.99909,-2.8917 z m -9.59737,-7.2541 h 10.12086 q 8.4756,0 12.61368,1.2215 4.16301,1.1966 7.12947,4.0882 2.61747,2.5178 3.88881,5.8083 1.27134,3.2905 1.27134,7.4536 0,4.2128 -1.27134,7.5283 -1.27134,3.2905 -3.88881,5.8083 -2.99138,2.8916 -7.17933,4.1131 -4.18794,1.1966 -12.56382,1.1966 h -10.12086 z"
       id="text1"
       transform="scale(0.99904492,1.000956)"
       aria-label="D" /><ellipse
       style="fill:#00aa00;stroke-width:0.338036"
       id="ellipse1"
       cx="602.4552"
       cy="2111.1179"
       rx="5.2778201"
       ry="5.2879157" /><ellipse
       style="fill:#000000;stroke-width:0.269425"
       id="ellipse2"
       cx="602.4552"
       cy="2123.5315"
       rx="4.2066116"
       ry="4.2146583" /><ellipse
       style="fill:#00aa00;stroke-width:0.395053"
       id="ellipse3"
       cx="602.4552"
       cy="2097.1694"
       rx="6.1680527"
       ry="6.1798511" /></g></svg>
